<svg version="1.2" xmlns="http://www.w3.org/2000/svg" viewBox="0 0 107 51" width="107" height="51">
	<title>logo-nyp-svg</title>
	<style>
		.s0 { fill: #231f20 } 
		.s1 { fill: #ed1c24 } 
		.s2 { fill: #254aa5 } 
	</style>
	<g id="NYPLogo">
		<path id="path336" class="s0" d="m124.5 42.3q0 0.2 0 0.3 0 0.2 0 0.3-0.1 0-0.1 0.1-0.1 0-0.1 0h-2.2v7.4q0 0.1 0 0.2-0.1 0-0.2 0.1-0.1 0-0.3 0-0.1 0-0.4 0-0.2 0-0.4 0-0.2 0-0.3 0-0.1-0.1-0.1-0.1-0.1-0.1-0.1-0.2v-7.4h-2.2q0 0-0.1 0 0-0.1 0-0.1-0.1-0.1-0.1-0.3 0-0.1 0-0.3 0-0.2 0-0.4 0-0.1 0.1-0.2 0-0.1 0-0.2 0.1 0 0.1 0h6.2q0 0 0.1 0 0 0.1 0.1 0.2 0 0.1 0 0.2 0 0.2 0 0.4z"/>
		<path id="path340" class="s0" d="m133 50.4q0 0.1-0.1 0.2 0 0-0.1 0.1-0.1 0-0.3 0-0.2 0-0.4 0-0.3 0-0.5 0-0.1 0-0.2 0-0.1-0.1-0.2-0.1 0-0.1 0-0.2v-3.7h-3.3v3.7q0 0.1 0 0.2-0.1 0-0.2 0.1-0.1 0-0.2 0-0.2 0-0.5 0-0.2 0-0.4 0-0.2 0-0.3 0-0.1-0.1-0.1-0.1 0-0.1 0-0.2v-8.6q0-0.1 0-0.2 0 0 0.1-0.1 0.1 0 0.3 0 0.2 0 0.4 0 0.3 0 0.5 0 0.1 0 0.2 0 0.1 0.1 0.2 0.1 0 0.1 0 0.2v3.3h3.3v-3.3q0-0.1 0-0.2 0.1 0 0.2-0.1 0.1 0 0.2 0 0.2 0 0.5 0 0.2 0 0.4 0 0.2 0 0.3 0 0.1 0.1 0.1 0.1 0.1 0.1 0.1 0.2z"/>
		<path id="path344" class="s0" d="m139.5 50q0 0.2 0 0.3 0 0.1-0.1 0.2 0 0.1-0.1 0.2 0 0-0.1 0h-4.3q-0.3 0-0.4-0.1-0.2-0.2-0.2-0.5v-8q0-0.3 0.2-0.5 0.1-0.1 0.4-0.1h4.3q0.1 0 0.1 0 0.1 0.1 0.1 0.2 0 0 0 0.2 0.1 0.1 0.1 0.3 0 0.2-0.1 0.4 0 0.1 0 0.2 0 0.1-0.1 0.1 0 0.1-0.1 0.1h-3.1v2.2h2.6q0.1 0 0.1 0 0.1 0.1 0.1 0.2 0.1 0 0.1 0.2 0 0.1 0 0.3 0 0.2 0 0.4 0 0.1-0.1 0.2 0 0.1-0.1 0.1 0 0-0.1 0h-2.6v2.6h3.1q0.1 0 0.1 0.1 0.1 0 0.1 0.1 0.1 0.1 0.1 0.2 0 0.2 0 0.4z"/>
		<path id="path348" class="s1" d="m146 50.4q0 0.1 0 0.2-0.1 0-0.2 0.1-0.1 0-0.3 0-0.1 0-0.4 0-0.2 0-0.4 0-0.2 0-0.3 0-0.1-0.1-0.1-0.1-0.1-0.1-0.1-0.2v-8.6q0-0.1 0.1-0.2 0 0 0.1-0.1 0.1 0 0.3 0 0.2 0 0.4 0 0.3 0 0.4 0 0.2 0 0.3 0 0.1 0.1 0.2 0.1 0 0.1 0 0.2z"/>
		<path id="path352" class="s1" d="m154.6 50q0 0.2-0.1 0.3-0.1 0.2-0.1 0.2-0.1 0.1-0.3 0.2-0.1 0-0.2 0h-0.8q-0.2 0-0.4 0-0.1-0.1-0.3-0.2-0.1-0.2-0.3-0.4-0.1-0.2-0.3-0.6l-2.1-4.3q-0.2-0.3-0.4-0.8-0.2-0.4-0.4-0.8 0 0.5 0.1 1 0 0.5 0 1v4.8q0 0.1-0.1 0.2 0 0-0.1 0.1-0.1 0-0.2 0-0.2 0-0.4 0-0.3 0-0.4 0-0.2 0-0.3 0-0.1-0.1-0.1-0.1 0-0.1 0-0.2v-8.2q0-0.4 0.2-0.5 0.1-0.2 0.4-0.2h1q0.2 0 0.4 0 0.2 0.1 0.3 0.2 0.1 0.1 0.3 0.3 0.1 0.2 0.2 0.5l1.7 3.3q0.2 0.3 0.3 0.6 0.1 0.3 0.3 0.6 0.1 0.3 0.2 0.6 0.2 0.3 0.3 0.6 0-0.5 0-1.1 0-0.5 0-1v-4.3q0-0.1 0-0.2 0 0 0.1-0.1 0.1 0 0.3 0 0.1 0 0.4 0 0.2 0 0.4 0 0.1 0 0.2 0 0.1 0.1 0.1 0.1 0.1 0.1 0.1 0.2v8.2q0 0 0 0z"/>
		<path id="path356" class="s1" d="m163.1 50q0 0.2 0 0.3-0.1 0.2-0.2 0.2-0.1 0.1-0.2 0.2-0.1 0-0.3 0h-0.7q-0.2 0-0.4 0-0.2-0.1-0.3-0.2-0.2-0.2-0.3-0.4-0.1-0.2-0.3-0.6l-2.2-4.3q-0.2-0.3-0.4-0.8-0.2-0.4-0.3-0.8 0 0.5 0 1 0 0.5 0 1v4.8q0 0.1 0 0.2-0.1 0-0.1 0.1-0.1 0-0.3 0-0.1 0-0.4 0-0.2 0-0.4 0-0.1 0-0.2 0-0.1-0.1-0.1-0.1-0.1-0.1-0.1-0.2v-8.2q0-0.4 0.2-0.5 0.2-0.2 0.5-0.2h0.9q0.3 0 0.4 0 0.2 0.1 0.4 0.2 0.1 0.1 0.2 0.3 0.1 0.2 0.3 0.5l1.7 3.3q0.1 0.3 0.3 0.6 0.1 0.3 0.2 0.6 0.2 0.3 0.3 0.6 0.1 0.3 0.2 0.6h0.1q-0.1-0.5-0.1-1.1 0-0.5 0-1v-4.3q0-0.1 0.1-0.2 0 0 0.1-0.1 0.1 0 0.2 0 0.2 0 0.4 0 0.3 0 0.4 0 0.2 0 0.3 0 0 0.1 0.1 0.1 0 0.1 0 0.2v8.2q0 0 0 0z"/>
		<path id="path360" fill-rule="evenodd" class="s1" d="m172.6 46q0 1.1-0.3 2-0.2 0.9-0.8 1.6-0.5 0.6-1.3 0.9-0.8 0.4-1.8 0.4-1 0-1.8-0.3-0.7-0.3-1.2-0.9-0.5-0.6-0.8-1.4-0.3-0.9-0.3-2.1 0-1.2 0.3-2.1 0.3-0.8 0.8-1.5 0.6-0.6 1.3-0.9 0.8-0.4 1.9-0.4 0.9 0 1.7 0.3 0.8 0.3 1.3 0.9 0.5 0.5 0.7 1.4 0.3 0.9 0.3 2.1zm-1.9 0.1q0-0.7-0.1-1.3-0.1-0.6-0.3-1-0.3-0.5-0.7-0.7-0.5-0.2-1.1-0.2-0.7 0-1.1 0.2-0.4 0.3-0.7 0.7-0.3 0.5-0.4 1-0.1 0.6-0.1 1.3 0 0.7 0.1 1.3 0.1 0.6 0.4 1 0.2 0.5 0.7 0.7 0.4 0.2 1 0.2 0.7 0 1.1-0.2 0.5-0.3 0.7-0.7 0.3-0.5 0.4-1.1 0.1-0.6 0.1-1.2z"/>
		<path id="path364" class="s1" d="m178 50.4q0 0.1-0.1 0.2 0 0-0.2 0.1-0.1 0-0.3 0-0.2 0-0.5 0-0.3 0-0.5 0-0.2 0-0.3 0-0.2 0-0.2 0-0.1-0.1-0.2-0.1 0 0-0.1-0.1 0-0.1 0-0.2l-2.6-8.1q-0.1-0.3-0.1-0.4 0-0.2 0.1-0.2 0-0.1 0.2-0.1 0.2 0 0.6 0 0.3 0 0.5 0 0.2 0 0.3 0 0 0.1 0.1 0.1 0 0.1 0.1 0.2l2.1 7.1 2.1-7.1q0-0.1 0-0.2 0.1 0 0.2-0.1 0.1 0 0.2 0 0.2 0 0.5 0 0.4 0 0.5 0 0.2 0 0.3 0.1 0 0.1 0 0.2 0 0.2-0.1 0.4l-2.6 8.2q0 0 0 0z"/>
		<path id="path368" fill-rule="evenodd" class="s1" d="m187.5 50q0.1 0.3 0.1 0.4 0 0.1 0 0.2-0.1 0.1-0.3 0.1-0.2 0-0.5 0-0.4 0-0.6 0-0.2 0-0.3 0-0.1-0.1-0.1-0.1 0-0.1-0.1-0.2l-0.6-1.8h-3.2l-0.6 1.8q0 0.1 0 0.2-0.1 0-0.2 0.1-0.1 0-0.3 0-0.1 0-0.4 0-0.3 0-0.5 0-0.2 0-0.3-0.1 0-0.1 0-0.2 0-0.2 0.1-0.4l2.7-8.2q0-0.1 0.1-0.2 0 0 0.1-0.1 0.2 0 0.4 0 0.2 0 0.5 0 0.4 0 0.7 0 0.2 0 0.3 0 0.2 0.1 0.2 0.1 0.1 0.1 0.1 0.2c0 0 2.7 8.2 2.7 8.2zm-4-6.7l-1.2 3.9h2.4z"/>
		<path id="path372" class="s1" d="m193.2 42.3q0 0.2 0 0.3 0 0.2-0.1 0.3 0 0-0.1 0.1 0 0-0.1 0h-2.2v7.4q0 0.1 0 0.2 0 0-0.1 0.1-0.1 0-0.3 0-0.2 0-0.4 0-0.3 0-0.5 0-0.1 0-0.2 0-0.1-0.1-0.2-0.1 0-0.1 0-0.2v-7.4h-2.2q-0.1 0-0.1 0-0.1-0.1-0.1-0.1 0-0.1-0.1-0.3 0-0.1 0-0.3 0-0.2 0-0.4 0.1-0.1 0.1-0.2 0-0.1 0.1-0.2 0 0 0.1 0h6.1q0.1 0 0.1 0 0.1 0.1 0.1 0.2 0.1 0.1 0.1 0.2 0 0.2 0 0.4z"/>
		<path id="path376" class="s1" d="m196.6 50.4q0 0.1-0.1 0.2 0 0-0.1 0.1-0.1 0-0.3 0-0.1 0-0.4 0-0.3 0-0.4 0-0.2 0-0.3 0-0.1-0.1-0.2-0.1 0-0.1 0-0.2v-8.6q0-0.1 0-0.2 0.1 0 0.2-0.1 0.1 0 0.3 0 0.1 0 0.4 0 0.3 0 0.4 0 0.2 0 0.3 0 0.1 0.1 0.1 0.1 0.1 0.1 0.1 0.2z"/>
		<path id="path380" class="s1" d="m203.1 50.4q0 0.1-0.1 0.2 0 0-0.1 0.1-0.2 0-0.4 0-0.2 0-0.5 0-0.3 0-0.5 0-0.2 0-0.3 0-0.1 0-0.2 0-0.1-0.1-0.2-0.1 0 0-0.1-0.1 0-0.1 0-0.2l-2.6-8.1q-0.1-0.3-0.1-0.4 0-0.2 0.1-0.2 0-0.1 0.2-0.1 0.3 0 0.6 0 0.3 0 0.5 0 0.2 0 0.3 0 0.1 0.1 0.1 0.1 0 0.1 0.1 0.2l2.1 7.1 2.1-7.1q0-0.1 0-0.2 0.1 0 0.2-0.1 0.1 0 0.3 0 0.1 0 0.5 0 0.3 0 0.4 0 0.2 0 0.3 0.1 0 0.1 0 0.2 0 0.2-0.1 0.4l-2.6 8.2q0 0 0 0z"/>
		<path id="path384" class="s1" d="m212.1 50q0 0.2 0 0.3 0 0.1 0 0.2-0.1 0.1-0.1 0.2-0.1 0-0.1 0h-4.4q-0.2 0-0.4-0.1-0.1-0.2-0.1-0.5v-8q0-0.3 0.1-0.5 0.2-0.1 0.4-0.1h4.3q0.1 0 0.1 0 0.1 0.1 0.1 0.2 0.1 0 0.1 0.2 0 0.1 0 0.3 0 0.2 0 0.4 0 0.1-0.1 0.2 0 0.1-0.1 0.1 0 0.1-0.1 0.1h-3.1v2.2h2.7q0 0 0.1 0 0 0.1 0 0.2 0.1 0 0.1 0.2 0 0.1 0 0.3 0 0.2 0 0.4 0 0.1-0.1 0.2 0 0.1 0 0.1-0.1 0-0.1 0h-2.7v2.6h3.2q0 0 0.1 0.1 0 0 0.1 0.1 0 0.1 0 0.2 0 0.2 0 0.4z"/>
		<path id="path388" fill-rule="evenodd" class="s0" d="m223.5 44.2q0 0.8-0.3 1.4-0.2 0.6-0.7 1-0.5 0.4-1.1 0.6-0.7 0.3-1.6 0.3h-0.8v2.9q0 0.1-0.1 0.2 0 0-0.1 0.1-0.1 0-0.3 0-0.2 0-0.5 0-0.2 0-0.4 0-0.2 0-0.3 0-0.1-0.1-0.2-0.1 0-0.1 0-0.2v-8.4q0-0.3 0.2-0.5 0.1-0.1 0.4-0.1h2.2q0.4 0 0.7 0 0.3 0 0.7 0.1 0.4 0.1 0.8 0.3 0.5 0.2 0.8 0.6 0.3 0.3 0.4 0.8 0.2 0.4 0.2 1zm-2 0.1q0-0.5-0.2-0.8-0.2-0.3-0.4-0.4-0.3-0.2-0.5-0.2-0.3-0.1-0.6-0.1h-0.8v3.2h0.8q0.5 0 0.8-0.1 0.3-0.2 0.5-0.4 0.2-0.2 0.3-0.5 0.1-0.3 0.1-0.7z"/>
		<path id="path392" fill-rule="evenodd" class="s0" d="m233.7 45.9q0 1.2-0.3 2.1-0.3 0.9-0.9 1.5-0.5 0.7-1.4 1-0.8 0.4-1.9 0.4-1.1 0-1.9-0.3-0.8-0.3-1.4-0.9-0.5-0.6-0.8-1.5-0.3-0.9-0.3-2.1 0-1.2 0.3-2.1 0.3-0.9 0.9-1.5 0.5-0.6 1.4-1 0.8-0.3 1.9-0.3 1.1 0 1.9 0.3 0.8 0.3 1.4 0.8 0.5 0.6 0.8 1.5 0.3 0.9 0.3 2.1zm-2 0.1q0-0.7-0.1-1.3-0.2-0.6-0.4-1.1-0.3-0.4-0.8-0.6-0.4-0.3-1.1-0.3-0.7 0-1.2 0.3-0.5 0.3-0.7 0.7-0.3 0.5-0.5 1-0.1 0.6-0.1 1.3 0 0.8 0.1 1.4 0.2 0.6 0.4 1 0.3 0.4 0.8 0.7 0.4 0.2 1.1 0.2 0.7 0 1.2-0.3 0.5-0.2 0.8-0.7 0.2-0.4 0.4-1 0.1-0.6 0.1-1.3z"/>
		<path id="path396" class="s0" d="m240.4 49.9q0 0.2 0 0.4 0 0.1-0.1 0.2 0 0.1 0 0.1-0.1 0.1-0.2 0.1h-4.2q-0.3 0-0.4-0.1-0.2-0.2-0.2-0.5v-8.5q0-0.1 0-0.1 0.1-0.1 0.2-0.1 0.1 0 0.3-0.1 0.2 0 0.4 0 0.3 0 0.5 0 0.2 0.1 0.3 0.1 0.1 0 0.2 0.1 0 0 0 0.1v7.5h2.9q0.1 0 0.2 0.1 0 0 0 0.1 0.1 0.1 0.1 0.2 0 0.2 0 0.4z"/>
		<path id="path400" class="s0" d="m244 47.1v3.3q0 0.1 0 0.2-0.1 0-0.2 0.1-0.1 0-0.3 0-0.1 0-0.4 0-0.3 0-0.5 0-0.2 0-0.3 0-0.1-0.1-0.1-0.1-0.1-0.1-0.1-0.2v-3.3l-2.5-5q-0.2-0.3-0.2-0.5 0-0.1 0-0.2 0.1-0.1 0.4-0.1 0.2 0 0.6 0 0.3 0 0.5 0 0.2 0 0.3 0.1 0.1 0 0.2 0.1 0 0.1 0.1 0.2l1 2.2q0.2 0.4 0.3 0.7 0.2 0.4 0.3 0.8 0.2-0.4 0.3-0.7 0.2-0.4 0.3-0.7l1-2.3q0.1-0.1 0.1-0.2 0.1-0.1 0.2-0.1 0.1-0.1 0.3-0.1 0.2 0 0.5 0 0.4 0 0.6 0 0.2 0 0.3 0.1 0.1 0.1 0.1 0.3-0.1 0.1-0.2 0.4l-2.6 5q0 0 0 0z"/>
		<path id="path404" class="s0" d="m255.1 42.1q0 0.2-0.1 0.4 0 0.1 0 0.2 0 0.1-0.1 0.2-0.1 0-0.1 0h-2.4v7.5q0 0.1 0 0.2 0 0-0.2 0.1-0.1 0-0.2 0-0.2 0-0.5 0-0.3 0-0.5 0-0.1 0-0.3 0-0.1-0.1-0.1-0.1-0.1-0.1-0.1-0.2v-7.5h-2.3q-0.1 0-0.1 0-0.1-0.1-0.1-0.2 0-0.1-0.1-0.2 0-0.2 0-0.4 0-0.2 0-0.3 0.1-0.2 0.1-0.3 0-0.1 0.1-0.1 0 0 0.1 0h6.6q0 0 0.1 0 0.1 0 0.1 0.1 0 0.1 0 0.3 0.1 0.1 0.1 0.3z"/>
		<path id="path408" class="s0" d="m262 49.9q0 0.3 0 0.4 0 0.1 0 0.2-0.1 0.1-0.1 0.2-0.1 0-0.2 0h-4.6q-0.3 0-0.4-0.1-0.2-0.2-0.2-0.5v-8.1q0-0.4 0.2-0.5 0.1-0.1 0.4-0.1h4.6q0.1 0 0.1 0 0.1 0 0.1 0.1 0.1 0.1 0.1 0.2 0 0.2 0 0.4 0 0.2 0 0.3 0 0.2-0.1 0.3 0 0.1-0.1 0.1 0 0-0.1 0h-3.3v2.3h2.8q0.1 0 0.1 0.1 0.1 0 0.1 0.1 0 0.1 0.1 0.2 0 0.1 0 0.3 0 0.3 0 0.4-0.1 0.1-0.1 0.2 0 0.1-0.1 0.1 0 0.1-0.1 0.1h-2.8v2.6h3.3q0.1 0 0.2 0 0 0.1 0.1 0.2 0 0.1 0 0.2 0 0.1 0 0.3z"/>
		<path id="path412" class="s0" d="m270.3 49.3q0 0.2-0.1 0.3 0 0.1 0 0.2 0 0.1 0 0.2-0.1 0-0.2 0.1 0 0.1-0.3 0.2-0.2 0.1-0.5 0.3-0.3 0.1-0.8 0.2-0.4 0-0.9 0-0.9 0-1.7-0.3-0.8-0.3-1.3-0.8-0.6-0.6-0.9-1.5-0.2-0.9-0.2-2.1 0-1.1 0.3-2.1 0.3-0.9 0.9-1.5 0.5-0.6 1.3-1 0.8-0.3 1.8-0.3 0.4 0 0.7 0.1 0.4 0 0.7 0.1 0.3 0.1 0.6 0.3 0.2 0.1 0.3 0.2 0.1 0.1 0.1 0.2 0.1 0 0.1 0.1 0 0.1 0 0.3 0 0.1 0 0.3 0 0.2 0 0.4 0 0.1 0 0.2-0.1 0.1-0.1 0.2-0.1 0-0.1 0-0.1 0-0.3-0.1-0.2-0.1-0.4-0.3-0.3-0.1-0.7-0.3-0.3-0.1-0.8-0.1-0.6 0-1 0.2-0.5 0.3-0.8 0.7-0.3 0.4-0.4 1-0.2 0.6-0.2 1.3 0 0.9 0.2 1.5 0.1 0.6 0.5 1 0.3 0.4 0.7 0.5 0.5 0.2 1 0.2 0.5 0 0.9-0.1 0.4-0.1 0.6-0.2 0.3-0.2 0.5-0.3 0.1-0.1 0.2-0.1 0.1 0 0.1 0 0.1 0 0.1 0.1 0 0.1 0 0.3 0.1 0.1 0.1 0.4z"/>
		<path id="path416" class="s0" d="m278.9 50.4q0 0.1 0 0.2-0.1 0-0.2 0.1-0.1 0-0.3 0-0.1 0-0.4 0-0.3 0-0.5 0-0.2 0-0.3 0-0.1-0.1-0.1-0.1-0.1-0.1-0.1-0.2v-3.7h-3.5v3.7q0 0.1 0 0.2 0 0-0.1 0.1-0.2 0-0.3 0-0.2 0-0.5 0-0.3 0-0.5 0-0.1 0-0.2 0-0.2-0.1-0.2-0.1 0-0.1 0-0.2v-8.8q0-0.1 0-0.1 0-0.1 0.2-0.1 0.1 0 0.2-0.1 0.2 0 0.5 0 0.3 0 0.5 0 0.1 0.1 0.3 0.1 0.1 0 0.1 0.1 0 0 0 0.1v3.4h3.5v-3.4q0-0.1 0.1-0.1 0-0.1 0.1-0.1 0.1 0 0.3-0.1 0.2 0 0.5 0 0.3 0 0.4 0 0.2 0.1 0.3 0.1 0.1 0 0.2 0.1 0 0 0 0.1z"/>
		<path id="path420" class="s0" d="m288.1 50q0 0.2-0.1 0.3 0 0.2-0.1 0.2-0.1 0.1-0.2 0.2-0.2 0-0.3 0h-0.8q-0.3 0-0.5 0-0.1-0.1-0.3-0.2-0.1-0.2-0.3-0.4-0.1-0.2-0.3-0.6l-2.3-4.3q-0.2-0.4-0.5-0.9-0.2-0.4-0.3-0.9 0 0.6 0 1.1 0 0.5 0 1v4.9q0 0.1 0 0.2-0.1 0-0.2 0.1-0.1 0-0.2 0-0.2 0-0.4 0-0.3 0-0.5 0-0.1 0-0.2 0-0.1-0.1-0.2-0.1 0-0.1 0-0.2v-8.4q0-0.3 0.2-0.5 0.2-0.1 0.5-0.1h1q0.3 0 0.5 0 0.2 0.1 0.3 0.2 0.2 0.1 0.3 0.3 0.1 0.1 0.3 0.4l1.8 3.4q0.1 0.4 0.3 0.7 0.1 0.3 0.3 0.6 0.1 0.2 0.3 0.5 0.1 0.3 0.2 0.6 0-0.5 0-1 0-0.6 0-1.1v-4.4q0 0 0-0.1 0.1-0.1 0.2-0.1 0.1 0 0.2-0.1 0.2 0 0.5 0 0.2 0 0.4 0 0.1 0.1 0.2 0.1 0.1 0 0.2 0.1 0 0.1 0 0.1c0 0 0 8.4 0 8.4z"/>
		<path id="path424" class="s0" d="m291.5 50.4q0 0.1-0.1 0.2 0 0-0.1 0.1-0.1 0-0.3 0-0.2 0-0.5 0-0.2 0-0.4 0-0.2 0-0.3 0-0.1-0.1-0.2-0.1 0-0.1 0-0.2v-8.8q0-0.1 0-0.1 0.1-0.1 0.2-0.1 0.1 0 0.3-0.1 0.2 0 0.4 0 0.3 0 0.5 0 0.2 0.1 0.3 0.1 0.1 0 0.1 0.1 0.1 0 0.1 0.1v8.8z"/>
		<path id="path428" class="s0" d="m300 49.3q0 0.2 0 0.3 0 0.1 0 0.2-0.1 0.1-0.1 0.2 0 0-0.1 0.1-0.1 0.1-0.3 0.2-0.3 0.1-0.6 0.3-0.3 0.1-0.7 0.2-0.5 0-0.9 0-1 0-1.8-0.3-0.7-0.3-1.3-0.8-0.5-0.6-0.8-1.5-0.3-0.9-0.3-2.1 0-1.1 0.3-2.1 0.3-0.9 0.9-1.5 0.6-0.6 1.4-1 0.8-0.3 1.7-0.3 0.4 0 0.8 0.1 0.3 0 0.6 0.1 0.3 0.1 0.6 0.3 0.2 0.1 0.3 0.2 0.1 0.1 0.2 0.2 0 0 0 0.1 0 0.1 0.1 0.3 0 0.1 0 0.3 0 0.2 0 0.4-0.1 0.1-0.1 0.2 0 0.1-0.1 0.2 0 0-0.1 0-0.1 0-0.3-0.1-0.1-0.1-0.4-0.3-0.3-0.1-0.6-0.3-0.4-0.1-0.9-0.1-0.6 0-1 0.2-0.4 0.3-0.7 0.7-0.3 0.4-0.5 1-0.2 0.6-0.2 1.3 0 0.9 0.2 1.5 0.2 0.6 0.5 1 0.3 0.4 0.8 0.5 0.4 0.2 1 0.2 0.5 0 0.8-0.1 0.4-0.1 0.7-0.2 0.2-0.2 0.4-0.3 0.2-0.1 0.3-0.1 0 0 0.1 0 0 0 0 0.1 0.1 0.1 0.1 0.3 0 0.1 0 0.4z"/>
		<path id="path432" class="s1" d="m138.4 62l5.8-6h66.6z"/>
		<path id="path444" class="s0" d="m141.8 31.1q0 0.6-0.2 1.1-0.2 0.4-0.5 0.7-0.3 0.3-0.7 0.5-0.4 0.1-0.9 0.1h-2.5q-0.8 0-1.4-0.2-0.6-0.1-1-0.6-0.5-0.5-1-1.3-0.4-0.8-1-2.1l-7.3-15.3q-0.6-1.4-1.3-3-0.6-1.6-1.2-3.1 0.1 1.8 0.1 3.7 0.1 1.8 0.1 3.7v17.2q0 0.3-0.1 0.5-0.2 0.2-0.5 0.3-0.3 0.2-0.8 0.2-0.5 0.1-1.3 0.1-0.8 0-1.3-0.1-0.6 0-0.9-0.2-0.3-0.1-0.4-0.3-0.1-0.2-0.1-0.5v-29.5q0-1.2 0.6-1.8 0.7-0.6 1.6-0.6h3.2q0.8 0 1.4 0.1 0.6 0.2 1.1 0.6 0.4 0.4 0.8 1 0.4 0.7 0.9 1.7l5.7 12q0.5 1.1 1 2.2 0.4 1 0.9 2.1 0.4 1 0.9 2.1 0.4 1 0.8 2 0-1.8-0.1-3.7 0-2 0-3.7v-15.4q0-0.3 0.1-0.5 0.2-0.2 0.5-0.4 0.3-0.1 0.8-0.2 0.5 0 1.4 0 0.7 0 1.3 0 0.5 0.1 0.8 0.2 0.2 0.2 0.4 0.4 0.1 0.2 0.1 0.5v29.5q0 0 0 0z"/>
		<path id="path448" fill-rule="evenodd" class="s0" d="m170.8 31q0.2 0.9 0.3 1.4 0.1 0.6-0.2 0.8-0.2 0.3-0.9 0.4-0.6 0-1.7 0-1.2 0-1.8 0-0.7-0.1-1-0.2-0.3-0.1-0.5-0.3-0.1-0.2-0.2-0.5l-2-6.6h-11l-1.8 6.4q-0.1 0.4-0.3 0.6-0.1 0.2-0.4 0.4-0.4 0.1-1 0.2-0.6 0-1.5 0-1.1 0-1.7-0.1-0.6 0-0.8-0.3-0.2-0.3-0.1-0.9 0-0.5 0.3-1.4l9-29.2q0.2-0.4 0.3-0.7 0.2-0.2 0.6-0.4 0.4-0.1 1.1-0.2 0.7 0 1.9 0 1.3 0 2.1 0 0.8 0.1 1.2 0.2 0.5 0.2 0.7 0.4 0.2 0.3 0.3 0.8c0 0 9.1 29.2 9.1 29.2zm-13.5-24.2l-4.2 14h8.3z"/>
		<path id="path452" class="s0" d="m197.6 31.1q0 0.6-0.2 1.1-0.2 0.4-0.5 0.7-0.3 0.3-0.7 0.5-0.4 0.1-0.8 0.1h-2.6q-0.8 0-1.3-0.2-0.6-0.1-1.1-0.6-0.5-0.5-0.9-1.3-0.5-0.8-1.1-2.1l-7.2-15.3q-0.7-1.4-1.3-3-0.7-1.6-1.2-3.1h-0.1q0.1 1.8 0.2 3.7 0 1.8 0 3.7v17.2q0 0.3-0.1 0.5-0.1 0.2-0.4 0.3-0.3 0.2-0.9 0.2-0.5 0.1-1.3 0.1-0.8 0-1.3-0.1-0.5 0-0.8-0.2-0.3-0.1-0.4-0.3-0.1-0.2-0.1-0.5v-29.5q0-1.2 0.6-1.8 0.6-0.6 1.5-0.6h3.2q0.9 0 1.4 0.1 0.6 0.2 1.1 0.6 0.5 0.4 0.9 1 0.4 0.7 0.8 1.7l5.7 12q0.5 1.1 1 2.2 0.5 1 0.9 2.1 0.5 1 0.9 2.1 0.5 1 0.9 2-0.1-1.8-0.1-3.7-0.1-2-0.1-3.7v-15.4q0-0.3 0.2-0.5 0.1-0.2 0.4-0.4 0.3-0.1 0.9-0.2 0.5 0 1.3 0 0.8 0 1.3 0 0.5 0.1 0.8 0.2 0.3 0.2 0.4 0.4 0.1 0.2 0.1 0.5v29.5q0 0 0 0z"/>
		<path id="path456" class="s0" d="m214.4 21v11.6q0 0.2-0.1 0.4-0.2 0.2-0.5 0.3-0.3 0.2-0.9 0.2-0.6 0.1-1.4 0.1-0.9 0-1.5-0.1-0.6 0-0.9-0.2-0.4-0.1-0.5-0.3-0.1-0.2-0.1-0.4v-11.6l-8.1-17.9q-0.4-1-0.5-1.5-0.1-0.5 0.1-0.8 0.3-0.3 1-0.3 0.7-0.1 1.9-0.1 1.1 0 1.7 0.1 0.6 0 1 0.1 0.3 0.2 0.5 0.4 0.2 0.2 0.3 0.6l3.3 8.1q0.5 1.2 0.9 2.5 0.5 1.3 1 2.7 0.5-1.4 0.9-2.7 0.5-1.3 0.9-2.5l3.2-8q0.1-0.4 0.3-0.6 0.2-0.3 0.5-0.4 0.3-0.2 0.9-0.2 0.6-0.1 1.6-0.1 1.3 0 2 0.1 0.7 0 1 0.3 0.2 0.3 0.1 0.8-0.1 0.5-0.5 1.5l-8.1 17.9z"/>
		<path id="path460" fill-rule="evenodd" class="s0" d="m245.6 31q0.2 0.9 0.3 1.4 0.1 0.6-0.2 0.8-0.2 0.3-0.8 0.4-0.7 0-1.8 0-1.1 0-1.8 0-0.6-0.1-1-0.2-0.3-0.1-0.5-0.3-0.1-0.2-0.2-0.5l-1.9-6.6h-11l-1.9 6.4q-0.1 0.4-0.2 0.6-0.2 0.2-0.5 0.4-0.3 0.1-0.9 0.2-0.6 0-1.6 0-1.1 0-1.6-0.1-0.6 0-0.9-0.3-0.2-0.3-0.1-0.9 0-0.5 0.3-1.4l9.1-29.2q0.1-0.4 0.3-0.7 0.1-0.2 0.5-0.4 0.4-0.1 1.1-0.2 0.7 0 1.9 0 1.3 0 2.1 0 0.8 0.1 1.3 0.2 0.4 0.2 0.6 0.4 0.2 0.3 0.3 0.8c0 0 9.1 29.2 9.1 29.2zm-13.5-24.2l-4.1 14h8.3z"/>
		<path id="path464" class="s0" d="m272.4 31.1q0 0.6-0.1 1.1-0.2 0.4-0.5 0.7-0.3 0.3-0.8 0.5-0.4 0.1-0.8 0.1h-2.5q-0.8 0-1.4-0.2-0.6-0.1-1.1-0.6-0.5-0.5-0.9-1.3-0.5-0.8-1-2.1l-7.3-15.3q-0.7-1.4-1.3-3-0.7-1.6-1.2-3.1 0.1 1.8 0.1 3.7 0 1.8 0 3.7v17.2q0 0.3-0.1 0.5-0.1 0.2-0.4 0.3-0.3 0.2-0.8 0.2-0.6 0.1-1.4 0.1-0.8 0-1.3-0.1-0.5 0-0.8-0.2-0.3-0.1-0.4-0.3-0.1-0.2-0.1-0.5v-29.5q0-1.2 0.6-1.8 0.6-0.6 1.5-0.6h3.2q0.9 0 1.5 0.1 0.6 0.2 1 0.6 0.5 0.4 0.9 1 0.4 0.7 0.8 1.7l5.7 12q0.5 1.1 1 2.2 0.5 1 1 2.1 0.4 1 0.8 2.1 0.5 1 0.9 2-0.1-1.8-0.1-3.7 0-2 0-3.7v-15.4q0-0.3 0.1-0.5 0.1-0.2 0.5-0.4 0.3-0.1 0.8-0.2 0.5 0 1.3 0 0.8 0 1.3 0 0.5 0.1 0.8 0.2 0.3 0.2 0.4 0.4 0.1 0.2 0.1 0.5v29.5q0 0 0 0z"/>
		<path id="path468" class="s0" d="m300 5.7q0 0.7-0.1 1.2 0 0.6-0.1 0.9-0.1 0.3-0.3 0.4-0.1 0.2-0.3 0.2-0.3 0-1-0.5-0.6-0.4-1.7-1-1.1-0.5-2.6-1-1.5-0.4-3.5-0.4-2.1 0-3.9 0.8-1.7 0.8-2.9 2.3-1.2 1.5-1.9 3.7-0.6 2.1-0.6 4.7 0 2.8 0.6 4.9 0.7 2.2 1.9 3.6 1.2 1.5 2.9 2.2 1.7 0.8 3.7 0.8 1 0 2-0.3 1-0.3 1.8-0.8v-7.6h-5.6q-0.4 0-0.6-0.6-0.2-0.5-0.2-1.9 0-0.7 0-1.2 0.1-0.5 0.2-0.8 0.1-0.3 0.3-0.4 0.1-0.1 0.3-0.2h9.9q0.4 0.1 0.7 0.2 0.3 0.1 0.5 0.4 0.2 0.3 0.3 0.7 0.1 0.4 0.1 0.9v13.1q0 0.7-0.2 1.3-0.3 0.6-1 0.9-0.7 0.4-1.8 0.7-1.1 0.4-2.3 0.6-1.1 0.3-2.3 0.4-1.2 0.1-2.4 0.1-3.5 0-6.3-1.1-2.8-1.1-4.7-3.3-1.9-2.1-2.9-5.2-1-3.1-1-7 0-4.1 1-7.3 1.1-3.2 3.1-5.5 2-2.2 4.8-3.4 2.9-1.2 6.3-1.2 1.9 0 3.5 0.3 1.5 0.3 2.7 0.7 1.2 0.4 1.9 0.9 0.8 0.5 1.1 0.8 0.3 0.4 0.5 1.1 0.1 0.6 0.1 1.9z"/>
		<path id="path472" class="s2" d="m78.6 2.5l-5.5-0.3-14.8 18.4-15.7-20.3h-16.8v2.3h4.5l19.1 24.5v15.3l-32.7-42.1h-16.7v2.3h4.5v45.9h-4.5v2.3h13.5v-2.3h-4.5v-40.1l32.8 42.3 18.8 0.1v-25.9l18-22.4q0 0 0 0z"/>
		<path id="path484" class="s1" d="m106.6 15c0-11.5-12.6-14.5-21.5-14.7h-0.2-0.4-17.7v2.3h17.3c3.1 0.3 7 2.2 9.3 5.5 1.2 1.8 2 4.1 2 6.9-0.1 8.1-7.1 12.5-12.9 12.2h-10.7v0.4 23.2h15.7v-2.3h-4.5v-19.1c10.8-0.4 23.6-2.9 23.6-14.4z"/>
	</g>
</svg>