<svg version="1.2" xmlns="http://www.w3.org/2000/svg" viewBox="0 0 794 496" width="794" height="496">
	<title>Singapore_Polytechnic_logo</title>
	<style>
		.s0 { fill: #000000 } 
		.s1 { fill: #ed2541 } 
	</style>
	<g id="SPLogo">
		<path id="Path 0" class="s0" d="m-87 253.5v347.5h17v-695h-17zm-1491-203.9c-3.6 0.7-9.2 2.3-12.5 3.5-3.3 1.2-8.9 4.1-12.5 6.4-3.6 2.3-8.4 6.7-10.8 9.6-2.4 3-5.5 7.9-6.9 10.9-1.4 3-3.2 8.4-3.9 12-0.8 3.6-1.4 9.9-1.4 14 0 4.1 0.7 10.7 1.5 14.5 0.9 3.8 3.2 10.1 5.3 13.9 2 3.8 6.9 10.3 10.7 14.4 3.9 4.2 12.2 11.2 18.8 15.8 6.4 4.6 15.4 10.5 20 13 4.5 2.6 11.8 6.8 16.1 9.3 4.4 2.5 11.1 7.5 14.9 11.1 3.7 3.6 7.7 8.3 8.8 10.5 1.2 2.6 1.9 6.2 1.9 10.5 0 3.6-0.6 8.8-1.4 11.5-0.9 3-2.8 6.2-4.8 8.1-1.8 1.8-4.6 3.8-6.3 4.7-1.7 0.8-5.4 2-8.3 2.6-2.8 0.6-8.8 1.1-13.2 1.1-4.4 0-10.4-0.5-13.3-1.1-2.8-0.6-7.9-2.5-11.1-4.3-3.3-1.7-7.8-5.3-10.3-8.1-2.4-2.7-5.7-7.6-7.3-10.7-2.1-4.1-3.4-5.6-4.3-5-0.7 0.4-6.8 5-13.6 10.2-6.7 5.2-12.2 9.8-12.1 10.3 0 0.4 2.2 4 4.9 8 2.6 3.9 7.7 9.8 11.2 13 3.5 3.2 9.3 7.3 12.9 9.1 3.6 1.8 9.4 4.3 13 5.4 3.6 1.1 9 2.5 12 3.1 3 0.5 8.7 1.2 12.5 1.6 3.8 0.3 11 0.1 16-0.4 5-0.6 11.6-1.8 14.7-2.6 3.2-0.8 8.8-3 12.5-4.7 4.1-2 9.5-6 14.1-10.3 5.2-4.9 8.4-8.9 10.6-13.5 1.8-3.6 4.1-10.1 5.1-14.5 1.4-6.2 1.7-10.4 1.2-19-0.3-6.9-1.3-13.4-2.6-17.5-1.2-3.6-3.4-8.7-5-11.5-1.6-2.7-5.1-7.5-7.8-10.5-2.8-3.1-11.1-9.7-18.9-15.1-7.6-5.3-17.9-11.7-22.9-14.3-5-2.7-13.3-7.6-18.5-11.1-5.2-3.4-11.6-8.6-14.3-11.4-2.6-2.8-5.4-6.7-6.2-8.6-0.8-1.9-1.5-6.1-1.5-9.2 0-3.2 0.5-7.6 1.1-9.8 0.7-2.3 2.8-5.7 5.3-8.1 2.8-2.9 5.8-4.7 9.6-5.8 3-0.9 8.8-1.6 12.7-1.6 5.4 0 9.1 0.7 14 2.6 3.8 1.4 9.7 4.5 13.3 6.9 3.6 2.4 8.7 6.7 11.5 9.4 2.7 2.8 5.2 5.1 5.5 5.2 0.3 0 5-5.5 10.5-12.2l10-12.1c-2.5-4.1-6.6-8.1-10.6-11.6-4.1-3.4-11.4-8.2-16.4-10.7-5-2.5-12.6-5.4-17-6.5-5.7-1.5-11.1-2-19-1.9-6 0-13.9 0.7-17.5 1.5z"/>
		<path id="Path 1" fill-rule="evenodd" class="s1" d="m415.1 8.9l110.7 0.4c96.1 0.3 112 0.5 120.7 2 5.5 0.8 14.1 2.5 19 3.5 4.9 1.1 13.9 3.6 20 5.6 6.1 2.1 15.7 6 21.5 8.7 5.8 2.8 15 8 20.5 11.6 6.7 4.5 14 10.7 22.1 18.7 7.2 7.2 14.3 15.5 17.7 20.6 3.1 4.7 7.6 12.6 10.1 17.5 2.5 4.9 6.1 13.7 8 19.5 1.9 5.8 4.5 15.2 5.8 21 2 9.4 2.2 13.2 2.3 37 0 23.5-0.3 27.7-2.2 37.5-1.3 6.1-3.7 15.3-5.4 20.5-1.8 5.2-4.4 12.2-5.9 15.5-1.5 3.3-4.9 9.6-7.5 14-2.6 4.4-7.5 11.6-11 16-3.4 4.4-10.2 11.8-15.1 16.4-4.9 4.6-13.8 11.6-19.9 15.7-6.1 4-16.2 9.7-22.5 12.7-6.3 3-16.4 7.1-22.5 9.1-6.1 2-15.9 4.7-22 6.1-6.1 1.3-16.2 3.2-22.5 4.1-9.2 1.3-22 1.7-116 2.4v143h-106zm105.9 241.1c84.8 0 95.2-0.3 102.5-1.6 5-0.8 12.8-3 17.5-4.7 4.7-1.8 11.7-5.3 15.5-7.8 3.9-2.6 9.6-7.5 12.8-11 3.7-4.1 7.5-9.7 10.3-15.4 2.7-5.7 5-12.1 6-17.5 1.2-6.3 1.5-11.3 1.1-19-0.3-5.8-1.3-13.2-2.2-16.5-0.8-3.3-3.2-9.4-5.2-13.5-2.7-5.7-5.5-9.4-11.7-15.5-6.3-6.3-10-9-16.6-12.2-4.7-2.3-12.1-5.1-16.5-6.3-4.4-1.1-11.4-2.4-15.5-3-4.1-0.5-27.9-1-52.7-1h-45.3z"/>
		<path id="Path 2" fill-rule="evenodd" class="s0" d="m-1087.8 48.1c7.2-0.1 14.8 0.5 19.5 1.5 4.3 0.9 9.8 2.4 12.3 3.4 2.5 1 7.4 3.5 11 5.6 3.6 2 10.3 7.5 23.5 20.4l-4.4 4.7c-2.5 2.7-7.5 8-17.7 18.8l-8-7.4c-5.5-5.1-10.4-8.6-16.3-11.5-7.5-3.6-9.4-4.1-17-4.5-5.8-0.2-10.7 0.2-15.1 1.3-3.6 0.9-8.4 2.8-10.8 4.1-2.3 1.4-5.8 4.2-7.8 6.3-2 2-4.9 6.2-8.9 14.7v117l2.5 5.4c1.4 3 4.5 7.2 7 9.4 2.5 2.3 6.7 5.1 9.5 6.3 2.7 1.3 8.2 2.8 12 3.5 4.1 0.7 10.5 0.9 15.5 0.6 4.7-0.4 10.7-1.3 13.5-2.1 2.7-0.9 7.6-3.1 16.5-8.6v-54h-40v-29h74v97.5l-6.7 5.2c-3.8 2.9-10.4 7.2-14.8 9.7-4.4 2.5-12 5.9-17 7.5-5 1.6-13 3.5-18 4.2-5.3 0.7-13.3 0.9-19.5 0.6-5.8-0.4-14.1-1.5-18.5-2.7-4.4-1.1-11.8-3.9-16.5-6.1-6.4-3.2-10.2-5.9-15.6-11.3-5.2-5.3-8.1-9.3-11.2-15.6-2.4-4.9-4.8-11.8-5.7-16.3-1.2-6.4-1.5-17.4-1.5-63.4 0-45.1 0.3-57.1 1.5-62.8 0.8-3.8 3.3-10.7 5.5-15.3 3-6.2 5.7-9.9 11.3-15.5 4.1-3.9 10-8.8 13.3-10.7 3.2-1.9 8.8-4.5 12.4-5.8 3.6-1.3 9.2-3 12.5-3.7 3.3-0.7 11.3-1.4 17.7-1.4zm519 0c8.5-0.1 16.4 0.4 20.5 1.3 3.8 0.8 9.7 2.5 13.3 3.8 3.6 1.3 9.2 3.9 12.4 5.8 3.3 1.9 9.2 6.8 13.3 10.7 5.6 5.6 8.3 9.3 11.3 15.5 2.2 4.6 4.7 11.5 5.5 15.3 1.2 5.7 1.5 17.7 1.5 63 0 45.3-0.3 57.3-1.5 63-0.8 3.9-3.3 10.8-5.6 15.5-3.2 6.5-6 10.3-11.8 16.1-6.2 6.2-9.4 8.5-17.1 12.2-5.2 2.5-13.1 5.4-17.5 6.4-6.2 1.4-11.8 1.8-25.5 1.7-14.5-0.1-18.9-0.5-25.5-2.2-4.4-1.2-11.8-4.1-16.5-6.4-6.4-3.1-10.3-5.9-15.6-11.2-3.9-3.9-8.4-9.4-9.9-12.1-1.6-2.8-4.1-8.1-8-19l-0.3-61c-0.2-52 0-61.9 1.3-67 0.8-3.3 3.4-9.8 5.7-14.5 3.2-6.5 5.9-10.2 11.3-15.5 3.9-3.8 9.8-8.6 13-10.5 3.3-1.9 8.9-4.5 12.5-5.8 3.6-1.3 9.4-3 13-3.7 3.6-0.7 12.7-1.4 20.2-1.4zm-23.2 35.4c-2.8 1.4-6.9 4.2-9.3 6.4-2.4 2.2-5.4 6.5-7.2 10.2l-3 6.4c-0.5 85.7-0.2 107.5 0.5 111.8 0.5 3.7 2.1 8.8 3.4 11.4 1.3 2.7 4.1 6.3 6.2 8.2 2.2 1.9 6.1 4.5 8.9 5.7 2.7 1.3 8.2 2.8 12 3.5 4.1 0.7 10.9 0.9 16.5 0.6 5.2-0.3 11.7-1.3 14.5-2.1 2.7-0.8 7.1-2.9 9.7-4.6 2.7-1.6 6.2-4.9 7.9-7.3 1.6-2.3 3.7-6.5 4.5-9.2 1.2-4.1 1.4-14.8 1.4-60.8 0-52.6-0.1-56-1.9-61-1.1-2.9-4.1-7.6-6.8-10.6-3.4-3.7-7-6.4-12.3-9-7.2-3.5-7.7-3.6-20-3.8-6.9-0.1-14.2 0.2-16.3 0.7-2 0.6-6 2.1-8.7 3.5zm-337.7-33.5h20.9c11.4 0 20.8 0.2 20.8 0.5 0 0.3 13.5 50.4 30 111.5 16.5 61.1 30 111.7 30 112.5 0 1.3-2.5 1.5-34.4 1l-1.7-6c-1-3.3-4.6-16.5-14.4-52.5h-62l-16 58.5-17.8 0.2c-9.7 0.2-17.7 0-17.7-0.5 0-0.4 14-51.2 31.2-113zm8.3 88.5c-5.8 24.2-10.8 45.3-11.1 46.8l-0.6 2.7c45.4 0 47-0.1 46.7-1.7-0.1-1-5.1-22.8-11-48.5-5.9-25.7-11.2-46.8-11.7-46.8-0.4 0-1.1 0.8-1.4 1.8-0.2 1-5.2 21.6-10.9 45.7zm-527.7-87.5h35l-0.5 224.5-34.5 0.5zm92 0h49.5l36.4 90.8c20.1 49.9 36.8 91.2 37.3 91.8 0.5 0.5 0.9-39 0.8-182.6h32l-0.5 224.5-53.5 0.5-1.9-5.2c-1-2.9-16.2-42.6-33.8-88.3-17.5-45.6-32.3-83.9-32.8-85-0.6-1.2-1.1 31.6-2 178h-31zm559.2-0.1l39.2 0.4c33.7 0.3 40 0.6 45.1 2.1 3.3 1 8.5 3 11.5 4.5 3 1.4 7.9 4.9 11 7.8 3.1 2.8 7 7.7 8.7 11 1.8 3.2 3.9 8.8 4.8 12.3 1.2 5 1.5 12.7 1.6 33 0 23.7-0.2 27.2-2 33-1.1 3.6-3.3 8.6-4.8 11-1.6 2.5-4.6 6.3-6.8 8.5-2.2 2.2-6 5.2-8.5 6.8-2.4 1.5-8.1 4-12.5 5.4-7.4 2.5-9.4 2.7-52.5 3.3v86l-34.5-0.5zm34.9 108.2c37.7-0.5 38.8-0.6 43.5-3 3.4-1.8 5.5-3.7 6.9-6.5 2-3.8 2.1-5.6 2.1-28 0-21.5-0.2-24.4-1.8-27.5-1.1-1.9-3.1-4.8-4.5-6.3-1.5-1.6-4.9-3.5-7.7-4.3-3.5-1-9.9-1.4-21.7-1.4h-16.8zm311.1-108.1l44.7 0.3c38.6 0.3 45.5 0.6 50.7 2.1 3.3 0.9 8.7 3 12 4.6 3.3 1.6 8.1 4.8 10.6 7.2 2.5 2.4 5.7 6.4 7.2 8.9 1.5 2.5 3.6 8.1 4.8 12.5 1.9 6.9 2.2 10.8 2.3 29.5 0.1 15.2-0.3 23.1-1.2 27-0.8 3-2.8 8.1-4.5 11.4-1.8 3.4-5.5 8-8.7 10.8-3 2.7-9.4 6.8-14.2 9.1-4.8 2.3-8.7 4.5-8.7 4.9-0.1 0.4 9.6 21.8 21.4 47.5 11.8 25.7 21.5 47.3 21.5 48 0 1-4.1 1.3-34.5 1.3l-43-94.1-25.5 0.1v94l-34.5-0.5zm34.9 100.1c46.3-0.6 46.6-0.6 52.3-3.3 4.5-2.1 6.2-3.6 8-7 2.1-3.9 2.2-5.4 2.2-23.7 0-18.3-0.1-19.8-2.2-23.8-1.3-2.3-3.7-5.3-5.5-6.6-1.8-1.3-5.1-2.9-7.3-3.5-2.3-0.6-13.1-1.1-25.7-1.1h-21.8zm136-100h107v31h-73v65h61v29h-61v69h79l-0.5 30.5h-112zm-917.5 250.4c7.6 0.3 12 1 18 3.1 4.4 1.5 9.8 3.9 12 5.5 2.2 1.5 6 4.9 8.5 7.6 2.4 2.7 5.5 7.1 6.7 9.9 1.3 2.7 2.7 7.5 3.3 10.5 0.6 3.2 1 20.6 1 41.2 0 22.5-0.4 37.7-1.1 41-0.6 2.9-2.3 7.8-3.7 10.8-1.4 3-5 8-8.1 11.1-3.1 3.1-7.6 6.6-10.1 7.9-2.4 1.2-7.8 3.1-12 4.1-4.8 1.2-10.9 1.9-17 1.9-5.2 0-12.4-0.7-16-1.4-3.5-0.8-8.9-2.5-12-3.9-3-1.4-7.7-4.6-10.5-7-2.7-2.4-6.3-6.9-7.9-9.8-1.6-3-3.5-7.7-4.2-10.4-1-3.7-1.3-15.2-1.4-44.8 0-36.9 0.2-40.2 2-46 1.1-3.4 3.6-8.5 5.5-11.2 1.8-2.8 5.1-6.4 7.2-8.1 2.1-1.6 5.4-3.9 7.3-5.1 2-1.1 5.8-2.8 8.5-3.7 2.8-0.9 7.1-2 9.5-2.6 2.5-0.5 9-0.8 14.5-0.6zm-19 24.3c-2.2 1.1-5.4 3.8-7.2 5.9-1.8 2.1-3.7 5.8-4.2 8.1-0.6 2.5-1.1 18.9-1.1 39.5 0 28.1 0.3 36.3 1.5 40.3 0.9 3 2.7 6.2 4.7 8.1 1.9 1.8 4.9 4 6.8 5 2.9 1.5 5.8 1.9 15.6 1.9 11 0 12.3-0.2 16.5-2.6 2.4-1.4 6-4.4 7.9-6.8l3.5-4.3c0.5-64.6 0.3-79.6-0.4-82.1-0.6-2-2.5-5.3-4.3-7.3-1.8-2-5.5-4.8-8.3-6.2-3.8-1.9-6.9-2.6-13-2.8-4.4-0.2-9.3 0-11 0.5-1.6 0.4-4.8 1.7-7 2.8zm558-24.6c2.8 0 7.8 0.4 11.3 0.9 3.4 0.5 8.8 2 12 3.2 4.3 1.6 7.6 4 20.7 16.8l-15.3 15.5-4.6-4.8c-2.5-2.6-6.8-5.8-9.6-7.2-2.7-1.4-7.3-2.8-10.2-3.1-2.9-0.4-7.7-0.1-10.8 0.5-3.6 0.7-6.8 2.2-9.4 4.3-2.1 1.8-4.8 5.1-6 7.3-2 3.9-2.1 5.2-2.1 44.5 0 40.1 0.1 40.5 2.3 44.7 1.2 2.4 3.7 5.4 5.5 6.7 1.8 1.3 5.5 3 8.2 3.7 2.8 0.6 8.1 1 12 0.7 4.5-0.3 8.7-1.3 11.5-2.8 2.5-1.2 6.7-4 9.3-6.1 2.6-2.2 4.9-3.8 5.1-3.7 0.2 0.2 3.2 3.7 6.5 7.8 3.4 4.1 6.1 7.8 6.1 8.2 0 0.5-2.1 2.5-4.7 4.6-2.6 2.1-6.3 4.8-8.3 6-1.9 1.1-6.2 3-9.5 4.2-3.6 1.3-9.7 2.4-15.5 2.7-5.9 0.4-11.9 0.1-16-0.7-3.5-0.7-8.9-2.2-12-3.3-3.3-1.3-7.7-4.2-11-7.3-3.5-3.3-6.4-7.2-8.2-11-1.5-3.3-3.2-8.6-3.8-11.9-0.7-4-1-19.7-0.8-46 0.3-37.5 0.5-40.4 2.4-45.5 1.1-3 3.5-7.6 5.2-10.3 1.8-2.6 5.6-6.5 8.5-8.7 2.9-2.2 7.9-4.9 11.2-6.1 3.3-1.2 8.1-2.5 10.5-2.9 2.5-0.4 6.8-0.8 9.5-0.9zm452 0.4c5 0.2 11.5 1.2 14.5 2.1 3.1 0.9 7.3 2.6 9.5 3.9 2.2 1.3 6.7 5.2 15.7 15l-15 15-4.6-4.8c-2.5-2.6-6.9-5.8-9.8-7.2-2.9-1.3-7.5-2.7-10.3-3.1-2.7-0.3-7.6-0.1-10.7 0.5-4.1 0.8-6.8 2-9.4 4.3-2 1.8-4.6 5.1-5.7 7.3-2.1 3.9-2.2 5.2-2.2 43 0 21.4 0.4 40.7 0.8 42.7 0.4 2.2 2.3 5.5 4.5 7.9 2.7 3 5.2 4.5 9.2 5.6 3.7 1 8 1.4 13 1.1 5.2-0.3 9-1.2 12-2.8 2.5-1.2 6.7-4 14-10l2.8 3.2c1.5 1.7 4.4 5.2 6.5 7.7 2.1 2.5 3.6 5 3.4 5.6-0.1 0.5-3.4 3.4-7.2 6.3-3.8 2.8-9.4 6.1-12.5 7.3-3 1.1-7.7 2.5-10.5 3-2.7 0.5-8.3 0.9-12.5 0.9-4.3 0-10.9-0.9-15.5-2-4.4-1.2-9.8-3.1-12-4.4-2.2-1.3-6.1-4.7-8.7-7.5-2.6-2.8-5.6-7-6.6-9.4-1.1-2.3-2.5-6.9-3.1-10.2-0.8-4.2-1.1-18.2-0.9-47 0.3-39.9 0.4-41.2 2.6-46.5 1.2-3 3.8-7.6 5.7-10.3 2-2.6 5.7-6.3 8.3-8.2 2.6-1.9 7.2-4.4 10.2-5.5 3.1-1.2 7.8-2.5 10.5-3 2.8-0.5 9.1-0.7 14-0.5zm-1120.1 1.7c24.3 0.5 26.6 0.7 32.6 2.9 4.3 1.5 8.3 3.9 11.5 6.9 2.9 2.7 6.1 6.9 7.5 10.1 2.4 5 2.5 6.6 2.9 24.9 0.3 15.5 0 20.6-1.2 25-0.9 3-2.9 7.3-4.5 9.5-1.6 2.2-5.1 5.5-7.8 7.3-2.7 1.8-7.1 4-9.9 4.8-2.7 0.8-11.5 1.8-34.5 2.9v56.5l-23.5-0.5-0.2-74c-0.2-40.7 0-74.6 0.3-75.4 0.5-1.1 5.4-1.2 26.8-0.9zm-3.4 73.3c21.8-1 26.5-1.7 28.8-2.8 1.8-1 4-3.2 4.8-5 1.4-2.7 1.6-6 1.3-19.3-0.3-13.1-0.7-16.5-2.1-18.7-1-1.5-3-3.5-4.5-4.5-2.1-1.3-5.4-1.8-15.4-2.1l-12.6-0.3zm231-73.5v130h57v21l-79.5-0.5-0.3-74c-0.1-40.7 0-74.6 0.3-75.3 0.3-0.9 3.6-1.2 22.5-1.2zm74.7-0.1c8.4 0 12.1 0.3 12.9 1.3 0.6 0.7 7.5 15.2 15.3 32.3 7.8 17 14.5 31.3 14.9 31.6 0.4 0.4 7.5-14 31-64.6l12.6-0.3c6.9-0.1 12.6 0 12.6 0.3 0 0.2-9.9 20.6-44 90v60.5l-23.5-0.5-1-62-21.3-43.5c-11.7-24-21.2-43.9-21.2-44.3 0-0.4 5.3-0.8 11.7-0.8zm107.3 0l98.5 0.6 0.5 20.5h-38v130l-23.5-0.5-0.5-129.5h-37zm187.5 0.5l0.5 20.5h-49v43l40.5 0.5 0.5 19.5h-41v46h53l-0.5 20.5h-75l-0.3-74c-0.1-40.7 0-74.6 0.2-75.3 0.4-1 8.1-1.2 71.1-0.7zm142.5-0.6l22.5 0.6 0.5 66.5h53v-67l22.5 0.5v150l-22.5 0.5v-63h-53l-0.5 62.5-22.5 0.5zm129.9 0h33l23.6 59.3c13 32.6 24.2 60.4 25 61.7 1.1 2.2 1.3-6.9 1.4-121l20.5 0.5 0.5 150.5-36.2-0.5-22.9-59.5c-12.6-32.7-23.2-59.7-23.4-60-0.3-0.2-0.5 26.6-0.5 120h-21zm142 0h23v151h-23z"/>
		<path id="Path 3" class="s1" d="m168 3.1c-5.8 0.5-16.1 2.1-23 3.5-6.9 1.4-17.7 4.2-24 6.3-6.3 2.1-15.8 6-21 8.6-5.2 2.6-12.7 6.8-16.5 9.3-3.8 2.4-10.6 7.4-14.9 11.1-4.4 3.6-10.3 9.3-13.1 12.6-2.9 3.3-7.2 8.7-9.6 12-2.4 3.3-6.5 10.1-9.1 15-2.6 4.9-6 13.1-7.7 18-1.6 4.9-3.7 12.4-4.6 16.5-0.9 4.1-2 12.9-2.6 19.5-0.6 8-0.6 16.6 0.1 25.8 0.5 7.5 1.7 17 2.5 20.9 0.8 4 2.7 10.9 4.1 15.3 1.5 4.4 4 10.7 5.6 14 1.7 3.3 5.2 9.1 7.9 13 2.6 3.9 8.7 10.8 13.6 15.5 4.8 4.7 12.6 11.1 17.3 14.2 4.7 3.1 13.1 7.9 18.8 10.7 5.6 2.8 14.6 6.8 19.9 9 5.4 2.1 16.1 5.9 23.8 8.4 7.7 2.5 22.8 6.8 33.5 9.7 10.7 2.8 24.5 6.5 30.5 8.2 6 1.7 17.5 5.3 25.5 8 8 2.7 19 7.3 24.5 10.1 5.6 3 12.3 7.4 15.3 10.2 3.1 2.9 6.5 7.4 8 10.5 2.4 4.9 2.7 6.6 2.7 16.5 0 10.1-0.2 11.5-2.9 17-1.6 3.3-5.4 8.4-8.3 11.3-3.2 3.2-8.1 6.5-12.6 8.7-3.9 1.9-11.2 4.4-16.2 5.7-7.9 2-11.5 2.3-29 2.2-16.4 0-22.1-0.4-32-2.2-6.6-1.3-18.3-4.4-26-6.9-7.8-2.6-20.2-7.8-28-11.7-7.7-3.9-18.7-10.2-24.5-14-5.8-3.8-15.2-10.4-21-14.8-8.5-6.5-10.7-7.8-11.6-6.7-0.6 0.8-14.8 17.8-31.5 37.7l-30.4 36.4c5.4 4.5 11.3 9.1 16.5 13.2 5.2 4 14.9 10.9 21.5 15.2 6.6 4.3 18.3 11.1 26 15 7.7 3.9 19.8 9.4 27 12.1 7.2 2.8 18.4 6.7 25 8.6 6.6 1.9 17.4 4.6 24 6 6.6 1.4 17.8 3.3 25 4.3 9.4 1.3 19.9 1.8 38 1.8 15.7 0.1 28.5-0.4 34.5-1.2 5.2-0.8 14.7-2.4 21-3.8 6.3-1.3 16.8-4.2 23.2-6.4 6.5-2.2 16-6.1 21-8.6 5.1-2.5 12.9-7 17.3-9.9 4.4-2.9 11.3-8.2 15.3-11.7 4-3.4 10.3-10 14-14.4 3.7-4.5 8.8-11.7 11.4-16 2.6-4.4 6-11 7.7-14.9 1.6-3.9 4.1-11.1 5.6-16 1.4-4.9 3.3-13.3 4.2-18.5 1.1-6.4 1.6-15.5 1.6-27.5 0-12.6-0.5-20.9-1.7-27.5-0.9-5.2-3.1-13.6-4.7-18.5-1.7-4.9-4.8-12.4-7-16.5-2.1-4.1-6.1-10.4-8.8-14-2.7-3.6-8.4-9.9-12.7-14-4.4-4.2-12.9-10.9-18.9-14.9-6-4-16.4-9.9-23-13.1-6.6-3.2-17.4-7.8-24-10.3-6.6-2.5-17.4-6.2-24-8.2-6.6-2-23-6.5-36.5-10.1-13.5-3.6-31.9-9-41-12-9.1-3-20.1-7.2-24.5-9.3-4.4-2.1-10.4-5.7-13.3-8-2.8-2.3-6.5-6-8.1-8.3-1.6-2.4-3.7-7-4.6-10.3-1.3-4.3-1.6-8.3-1.3-14 0.3-6 1-9.4 3-13.5 1.5-3.2 5-7.7 8.2-10.7 3.1-3 8.8-6.8 12.8-8.8 4-1.9 10.7-4.3 14.8-5.2 5.2-1.2 12.1-1.7 22.5-1.7 11.6 0 17.6 0.5 26.5 2.3 6.3 1.2 16.7 4 23 6.1 6.3 2.1 16.1 5.8 21.7 8.4 5.7 2.5 14.2 6.8 19 9.5 4.9 2.6 11.7 6.6 15.3 8.8 3.6 2.2 9.1 5.7 12.3 7.9 5.1 3.4 5.9 3.7 7.1 2.4 0.7-0.8 12.9-18.4 27.1-39 14.2-20.6 26-38.2 26.2-39 0.2-0.9-1.7-3-4.4-5-2.6-1.9-10.4-7.2-17.3-11.8-6.9-4.6-18.1-11.2-25-14.7-6.9-3.4-17.7-8.3-24-10.8-6.3-2.5-17.1-6.1-24-8.1-6.9-1.9-17-4.4-22.5-5.5-5.5-1.1-15.6-2.7-22.5-3.6-6.9-0.8-20.6-1.7-30.5-1.9-9.9-0.3-22.7 0-28.5 0.5z"/>
	</g>
</svg>