<svg version="1.2" xmlns="http://www.w3.org/2000/svg" viewBox="0 0 26 26" width="26" height="26">
	<title>tplogo-svg</title>
	<style>
		.s0 { fill: #ffffff } 
		.s1 { fill: #ef0c1d } 
		.s2 { fill: #545454 } 
	</style>
	<g id="TPLogo">
		<path id="Layer" class="s0" d="m13.3 24.9c-6.2 0-11.2-5-11.2-11.3 0-6.2 5-11.2 11.2-11.2 6.3 0 11.3 5 11.3 11.2 0 6.3-5 11.3-11.3 11.3z"/>
		<g id="Layer">
			<g id="Layer">
				<path id="Layer" class="s1" d="m9.7 9.5c0.1 1.1 0.1 2.5 0.1 3v0.1c-0.1 2.2-0.8 4-1 4.4 0.5 0.1 2.5 0.6 4.2 1.4 1.8-0.9 3.8-1.3 4.2-1.4 0-0.1-0.9-2.1-0.9-4.5 0-0.4 0-1.8 0.1-3l2.2-1.9h-1.6l-1.7 1.4v7.2q-0.9 0.2-2.2 0.8h-0.1c-0.7-0.4-1.5-0.6-2.2-0.8h-0.1v-0.1-7.1l-1.7-1.4h-1.6l2.3 1.9z"/>
				<path id="Layer" class="s1" d="m17.9 9.6l-0.4 0.4v0.4c0 0.1 0 0.3 0 0.5h0.5l0.6-0.7z"/>
				<path id="Layer" class="s1" d="m8.1 9.6l-0.6 0.6 0.6 0.7h0.5v-0.4c0-0.2 0-0.4 0-0.5z"/>
				<path id="Layer" class="s1" d="m17.5 11.8c0 0.2 0 0.5 0 0.7 0 0.2 0.1 0.5 0.1 0.7h0.7l0.6-0.6-0.7-0.8z"/>
				<path id="Layer" class="s1" d="m17.7 14.3q0.1 0.2 0.2 0.8c0.1 0.2 0.2 0.5 0.2 0.5h0.8l0.5-0.5-0.9-0.8z"/>
				<path id="Layer" fill-rule="evenodd" class="s1" d="m26 13.4c0.1 7.1-5.8 13-13 13-7.2 0-13-5.8-13-13 0-7.2 5.8-13.1 13-13.1 7.2 0 13 5.9 13 13.1zm-15.8-9.8l2.8 2.8 2.9-2.8zm12.4 14.2l-0.6-1.2c0 0-0.9 0-1.2 0-0.4 0-0.8 0-1 0l1.2-1.2h0.7l-0.5-1.3h-1l-0.7-0.7 0.7-0.7h0.7l-0.2-1.3h-1.1l-0.4-0.4 0.6-0.6h0.7l-0.2-1.4h-1.1l-0.3-0.3 1.3-1.3-0.1-1.4h-4.3v1.1h-1.7v8h-2.1v-8h-1.7v-1.1h-4.3-0.1v0.1c0 0 0 0.3 0 0.6-0.1 0.7-0.1 0.7-0.1 0.7l1.3 1.3-0.2 0.3h-1.1l-0.2 1.4h0.6l0.7 0.7-0.4 0.3h-1.1l-0.3 1.3h0.8l0.7 0.7-0.7 0.7h-1.1l-0.4 1.3h0.7l1.2 1.2c-0.4 0-1.1 0-2.2 0h-0.1l-0.5 1.2 2.1 3.3h1.2c2.8 0.1 6.2 1.7 6.2 1.7h0.1c0.2-0.1 3.5-1.6 6.2-1.7h1.2z"/>
				<path id="Layer" class="s1" d="m8.5 13.2c0-0.2 0-0.5 0-0.7 0 0 0.1-0.2 0.1-0.6h-0.7l-0.7 0.7 0.6 0.6z"/>
				<path id="Layer" class="s1" d="m13.1 19.8h-0.1c-3.1-1.6-6.1-1.8-7.3-1.8q-0.2 0.1-0.4 0.1l1.1 1.6c0.4 0 3.5 0.2 6.6 1.8 1.5-0.7 3.7-1.6 6.6-1.8q0.1 0 0.1 0l1-1.6q-0.1 0-0.4 0c-1.1 0-4.1 0.1-7.2 1.7z"/>
				<path id="Layer" class="s1" d="m8 15.6q0 0 0 0c0-0.1 0.1-0.3 0.1-0.5 0.1-0.3 0.2-0.7 0.2-0.8h-0.8l-0.8 0.8 0.5 0.6z"/>
			</g>
			<g id="Layer">
				<g id="Layer">
					<path id="Layer" class="s1" d="m41.4 1.2h-4.4v21.7c0 1-0.8 1.5-1.5 1.5-0.8 0-1.5-0.4-1.5-1.5l-0.1-21.7h-4.4c-1 0-1.5-0.7-1.5-1.5 0-0.7 0.5-1.5 1.5-1.5h11.9c1 0 1.5 0.7 1.5 1.5 0 0.8-0.5 1.5-1.5 1.5z"/>
					<path id="Layer" fill-rule="evenodd" class="s1" d="m55.3 15.9l-8.8 0.1v2c0 1.9 1.6 3.4 3.4 3.4h0.4c1.6 0 2.6-0.9 3.2-2 0.2-0.7 0.8-1 1.3-1 0.8 0 1.5 0.6 1.6 1.6q0 0.3-0.2 0.6c-1 2.3-3.1 3.8-5.9 3.8h-0.4c-3.5 0-6.4-2.8-6.4-6.4v-6.9c0-3.6 2.9-6.4 6.4-6.5h0.4c3.6 0 6.5 2.8 6.5 6.5v3.3c0 0.8-0.7 1.5-1.5 1.5zm-1.6-4.8c0-1.9-1.6-3.4-3.3-3.4h-0.4c-1.9 0-3.5 1.5-3.5 3.4v2h7.2z"/>
					<path id="Layer" class="s1" d="m83.4 24.4c-0.8 0-1.5-0.5-1.5-1.5v-11.9c0-2.2-1.4-3.3-3.4-3.3h-0.4c-1.9 0-3.5 1.4-3.5 3.4l0.1 11.7c0 1.1-0.8 1.6-1.6 1.6-0.7 0-1.5-0.5-1.5-1.6v-11.7c0-2-1.5-3.4-3.5-3.4h-0.3c-1.8 0-3.5 1.2-3.5 3.1v12.1c0 1-0.7 1.5-1.5 1.5-0.7 0-1.5-0.5-1.5-1.5v-16.8c0-0.9 0.7-1.5 1.5-1.5 0.7 0 1.4 0.4 1.5 1.2 0.8-0.8 2.1-1.2 3.5-1.2h0.3c2.1 0 3.8 0.9 5 2.3 1.3-1.4 2.9-2.3 5-2.3h0.3c3.5 0 6.5 2 6.5 6.4v11.9c0 1-0.7 1.5-1.5 1.5z"/>
					<path id="Layer" fill-rule="evenodd" class="s1" d="m103 24.4c-0.1 0-0.3 0-0.3-0.1-1.4-0.2-2.2-0.7-2.7-1.5-1.2 1-2.7 1.6-4.4 1.6h-0.3c-3.2 0-6.5-2-6.5-5.8v-0.4c0-6.4 9.1-5.3 10.1-6.6 0.2-0.2 0.2-0.5 0.2-0.7 0-2.4-1.5-3.3-3.3-3.2h-0.3c-1.6 0-2.4 0.6-3.2 2-0.3 0.6-0.9 0.8-1.4 0.8-0.7 0-1.5-0.6-1.5-1.4q0-0.5 0.2-0.8c1.2-2.9 3.8-3.7 5.9-3.7h0.3c3.6 0 6.3 2.8 6.3 6.2v9.3q0 1.1 1.1 1.3c0.9 0.2 1.3 0.8 1.3 1.4 0 0.8-0.5 1.6-1.5 1.6zm-3.9-9.6c-3 0.7-7.2 0.7-7.2 3.4v0.4c0 1.7 1.3 2.8 3.4 2.8h0.3c1.9 0 3.5-1.5 3.5-3.5z"/>
					<path id="Layer" class="s1" d="m114 24.4h-0.3c-2.6 0-5.5-1.5-6.8-4q-0.2-0.4-0.2-0.8c0-0.9 0.8-1.5 1.5-1.5 0.5 0 1.1 0.2 1.4 0.7 1 1.4 2.8 2.5 4.2 2.5h0.2c2.5 0 3.8-1.3 3.9-2.6 0.1-5.4-10.4-1.4-10.5-9 0-3.8 4.1-5.1 6.6-5.1h0.2c2.7 0 4.6 1.2 5.2 1.7 0.4 0.3 0.6 0.7 0.6 1.2 0 0.7-0.6 1.4-1.4 1.4q-0.5 0-0.9-0.2c-0.9-0.5-1.8-1.1-3.6-1.1h-0.1c-2.3 0-3.5 1-3.5 2.1-0.2 4.4 10.4 0.9 10.4 8.9v0.1c0 3.8-3.6 5.6-6.9 5.7z"/>
					<path id="Layer" fill-rule="evenodd" class="s1" d="m136.1 15.9h-8.8v2c0 1.9 1.6 3.4 3.4 3.4h0.4c1.6 0 2.7-0.9 3.2-2 0.2-0.7 0.8-1 1.3-1 0.8 0 1.6 0.6 1.6 1.6q0 0.3-0.2 0.6c-1 2.3-3.1 3.8-5.9 3.8h-0.4c-3.5 0-6.4-2.8-6.4-6.4v-6.9c0-3.6 2.9-6.5 6.4-6.5h0.4c3.6 0 6.5 2.8 6.5 6.5v3.3c0 0.8-0.7 1.6-1.5 1.6zm-1.6-4.8c0-2-1.6-3.5-3.3-3.5h-0.4c-1.9 0-3.5 1.5-3.5 3.4v2h7.2z"/>
					<path id="Layer" class="s1" d="m154.4 24.3c-0.4 0-0.9-0.2-1.2-0.8l-5.1-8.7-2.7 2.8 0.1 5.2c0 1-0.8 1.5-1.6 1.5-0.7 0-1.5-0.5-1.5-1.5v-24.6c0-1 0.7-1.5 1.5-1.6 0.8 0 1.5 0.6 1.5 1.6l0.1 15 7.6-8.1q0.5-0.6 1.1-0.6c0.9 0 1.5 0.8 1.5 1.6q0 0.6-0.4 1l-5 5.3 5.5 9.7c0.2 0.2 0.2 0.4 0.2 0.7 0 0.8-0.6 1.5-1.6 1.5z"/>
					<g id="Layer">
						<path id="Layer" fill-rule="evenodd" class="s2" d="m74.6 30.4c1.5 0 2.7 1.3 2.7 2.8 0 1.5-1.2 2.7-2.7 2.7 0 0-1.4 0-1.6 0 0 0.2 0 3.8 0 3.8 0 0.4-0.4 0.6-0.7 0.6-0.3 0-0.6-0.1-0.6-0.6v-8.6c0-0.4 0.3-0.7 0.6-0.7zm-1.6 1.3c0 0.2 0 2.7 0 2.9 0.2 0 1.6 0 1.6 0 0.8 0 1.5-0.6 1.5-1.4 0-0.8-0.7-1.5-1.5-1.5 0 0-1.4 0-1.6 0z"/>
						<path id="Layer" fill-rule="evenodd" class="s2" d="m82.6 30.4c1.5 0 2.8 1.2 2.8 2.7v4.5c0 1.5-1.2 2.8-2.7 2.8h-0.2c-1.5 0-2.7-1.3-2.7-2.8v-4.5c0-1.5 1.2-2.7 2.7-2.7zm-0.1 8.7h0.1c0.8 0 1.5-0.7 1.5-1.5v-4.5c0-0.8-0.7-1.5-1.5-1.5h-0.1c-0.8 0-1.5 0.7-1.5 1.5v4.5c0 0.8 0.7 1.5 1.5 1.5z"/>
						<path id="Layer" class="s2" d="m88.7 31v8.6c0 0.4 0.3 0.7 0.7 0.7h3.8c0.4 0 0.6-0.4 0.6-0.7 0-0.3-0.2-0.6-0.7-0.6 0 0-2.9 0-3.1 0 0-0.2 0-8 0-8 0-0.4-0.4-0.7-0.7-0.7-0.3 0-0.6 0.3-0.6 0.7z"/>
						<path id="Layer" class="s2" d="m100 30.3c-0.3 0-0.5 0.2-0.6 0.4 0 0-1.4 3.5-1.6 4-0.2-0.5-1.7-4-1.7-4-0.1-0.2-0.3-0.4-0.5-0.4-0.3 0-0.5 0.1-0.6 0.3q-0.2 0.3 0 0.6l2.2 5.3v3.2c0 0.4 0.3 0.6 0.6 0.6 0.3 0 0.6-0.2 0.6-0.6v-3.3l2.2-5.2q0.1-0.3 0-0.6-0.3-0.3-0.6-0.3z"/>
						<path id="Layer" class="s2" d="m103.1 30.4c-0.4 0-0.7 0.3-0.7 0.6 0 0.4 0.3 0.7 0.7 0.7 0 0 1.2 0 1.4 0 0 0.2 0 8 0 8 0 0.4 0.3 0.6 0.7 0.6 0.3 0 0.6-0.2 0.6-0.6 0 0 0-7.8 0-8 0.2 0 1.4 0 1.4 0 0.4 0 0.6-0.3 0.6-0.7 0-0.3-0.2-0.6-0.6-0.6z"/>
						<path id="Layer" class="s2" d="m111 30.4c-0.4 0-0.7 0.3-0.7 0.6l0.1 8.6c0 0.4 0.2 0.6 0.6 0.6h4.3c0.5 0 0.7-0.3 0.7-0.6 0-0.3-0.2-0.6-0.7-0.6 0 0-3.5 0-3.7 0 0-0.2 0-3 0-3.2 0.2 0 2.6 0 2.6 0 0.4 0 0.6-0.3 0.6-0.6 0-0.4-0.2-0.7-0.6-0.7 0 0-2.4 0-2.6 0 0-0.2 0-2.7 0-2.8 0.2 0 3.7 0 3.7 0 0.5 0 0.7-0.4 0.7-0.7 0-0.3-0.2-0.6-0.7-0.6z"/>
						<path id="Layer" class="s2" d="m121.2 30.3c-1.5 0-2.7 1.2-2.7 2.8v4.5c0 1.5 1.2 2.7 2.7 2.7h0.2c1.3 0 2.5-1 2.7-2.3v-0.1c0-0.4-0.3-0.7-0.6-0.7-0.3 0-0.6 0.2-0.7 0.6-0.1 0.7-0.7 1.3-1.4 1.3h-0.2c-0.8 0-1.4-0.7-1.4-1.5l-0.1-4.5c0-0.8 0.7-1.5 1.5-1.5h0.2c0.7 0 1.3 0.5 1.4 1.3 0.1 0.3 0.4 0.5 0.7 0.5 0.3 0 0.6-0.2 0.6-0.6v-0.1c-0.2-1.4-1.4-2.4-2.7-2.4 0 0-0.2 0-0.2 0z"/>
						<path id="Layer" class="s2" d="m131.3 30.9c0 0 0 3.4 0 3.6-0.2 0-2.9 0-3.1 0 0-0.2 0-3.6 0-3.6 0-0.4-0.3-0.6-0.6-0.6-0.4 0-0.7 0.2-0.7 0.6v8.8c0 0.4 0.4 0.6 0.7 0.6 0.3 0 0.6-0.2 0.6-0.6 0 0 0-3.7 0-3.9 0.2 0 2.9 0 3.1 0 0 0.2 0 3.9 0 3.9 0 0.4 0.3 0.6 0.6 0.6 0.4 0 0.7-0.2 0.7-0.6v-8.8c0-0.4-0.4-0.6-0.7-0.6-0.3 0-0.6 0.2-0.6 0.6z"/>
						<path id="Layer" class="s2" d="m140.5 30.9c0 0 0 5.4 0 6.3-0.4-0.8-2.8-6.4-2.8-6.4-0.2-0.4-0.5-0.5-0.8-0.5-0.4 0-0.8 0.2-0.8 0.6v8.8c0 0.4 0.3 0.6 0.7 0.6 0.3 0 0.6-0.2 0.6-0.6 0 0 0-5.5 0-6.3 0.4 0.8 2.8 6.4 2.8 6.4 0.3 0.5 0.6 0.5 0.8 0.5 0.5 0 0.8-0.3 0.7-0.7v-8.7c0-0.4-0.3-0.6-0.6-0.6-0.3 0-0.6 0.2-0.6 0.6z"/>
						<path id="Layer" class="s2" d="m145.4 30.9v8.8c0 0.4 0.4 0.6 0.7 0.6 0.3 0 0.6-0.2 0.6-0.6v-8.8c0-0.4-0.3-0.6-0.6-0.6-0.3 0-0.7 0.2-0.7 0.6z"/>
						<path id="Layer" class="s2" d="m152.9 30.3c-1.5 0-2.7 1.2-2.7 2.7v4.5c0 1.6 1.2 2.8 2.8 2.8h0.1c1.4 0 2.5-1 2.7-2.4v-0.1c0-0.4-0.3-0.6-0.6-0.6-0.2 0-0.5 0.1-0.6 0.5-0.2 0.8-0.8 1.3-1.5 1.3h-0.1c-0.9 0-1.5-0.7-1.5-1.5v-4.5c0-0.8 0.6-1.5 1.4-1.5h0.2c0.7 0 1.3 0.6 1.5 1.3 0 0.4 0.3 0.6 0.6 0.6 0.3 0 0.6-0.3 0.6-0.7-0.2-1.4-1.3-2.4-2.7-2.4 0 0-0.2 0-0.2 0z"/>
					</g>
				</g>
			</g>
		</g>
	</g>
</svg>